<?xml version="1.0" encoding="UTF-8" standalone="no"?>
<svg
   width="137.37654mm"
   height="41.96804mm"
   viewBox="0 0 137.37654 41.968041"
   version="1.1"
   id="svg5"
   sodipodi:docname="logo.svg"
   inkscape:version="1.3.2 (091e20ef0f, 2023-11-25, custom)"
   xmlns:inkscape="http://www.inkscape.org/namespaces/inkscape"
   xmlns:sodipodi="http://sodipodi.sourceforge.net/DTD/sodipodi-0.dtd"
   xmlns="http://www.w3.org/2000/svg"
   xmlns:svg="http://www.w3.org/2000/svg">
  <sodipodi:namedview
     id="namedview1"
     pagecolor="#ffffff"
     bordercolor="#666666"
     borderopacity="1.0"
     inkscape:showpageshadow="2"
     inkscape:pageopacity="0.0"
     inkscape:pagecheckerboard="0"
     inkscape:deskcolor="#d1d1d1"
     inkscape:document-units="mm"
     showgrid="false"
     inkscape:zoom="3.2596805"
     inkscape:cx="205.8484"
     inkscape:cy="74.853963"
     inkscape:window-width="3838"
     inkscape:window-height="2118"
     inkscape:window-x="2560"
     inkscape:window-y="220"
     inkscape:window-maximized="0"
     inkscape:current-layer="layer1" />
  <defs
     id="defs2" />
  <g
     id="layer1"
     transform="translate(-45.541465,-100.0255)"
     inkscape:label="logo">
    <rect
       style="fill:#ffffff;fill-opacity:1;stroke:#ffffff;stroke-width:0.3;stroke-linejoin:round;stroke-opacity:1"
       id="rect1"
       width="135.39845"
       height="35.476742"
       x="46.619663"
       y="105.29224"
       inkscape:label="white-bg"
       transform="translate(5.4166667e-7)" />
    <path
       id="rect870"
       style="fill:#7269d2;stroke-width:0.213781"
       d="m 45.541465,100.0255 v 41.96804 H 182.918 V 100.0255 Z m 2.741481,7.58389 H 180.43022 v 32.07156 H 48.282946 Z"
       inkscape:label="bg" />
    <path
       id="rect15036"
       style="fill:#ffffff;stroke-width:0.142321"
       d="m 176.82884,101.36751 -1.16053,1.16053 1.22334,1.22363 -1.22195,1.22196 1.16052,1.16052 1.22225,-1.22224 1.22084,1.22113 1.16053,-1.16053 -1.22112,-1.22084 1.22251,-1.22251 -1.16053,-1.16053 -1.22223,1.22224 z"
       inkscape:label="close-x" />
    <path
       d="m 57.272137,121.40323 q 1.746586,-1.37645 3.551007,-1.37645 2.486861,0 3.724509,1.65405 1.249214,1.64249 1.249214,4.51105 0,2.03576 -0.751842,3.58571 -0.740275,1.54995 -2.209258,2.41746 -1.468984,0.85594 -3.551007,0.85594 -1.15668,0 -2.128291,-0.12723 -0.971611,-0.12724 -1.549951,-0.26604 -0.566773,-0.15037 -0.705574,-0.19663 v -15.98532 l -1.896955,-0.47424 v -1.30704 l 4.268148,-0.11567 z m 0,9.51947 q 0,0.0231 0.636174,0.1388 0.636174,0.1041 1.73502,0.1041 1.943221,0 2.799164,-1.30704 0.86751,-1.30705 0.86751,-3.43534 0,-2.08203 -0.728708,-3.28497 -0.717141,-1.21452 -2.232392,-1.21452 -0.948477,0 -1.642485,0.34701 -0.682441,0.33543 -1.064145,0.72871 -0.370138,0.39327 -0.370138,0.46267 z m 16.575221,-10.89592 q 2.625663,0 4.094646,1.70032 1.468983,1.68875 1.468983,4.58045 0,1.98949 -0.740275,3.52787 -0.728708,1.53839 -2.082023,2.38276 -1.341749,0.83281 -3.099902,0.83281 -2.695063,0 -4.18718,-1.61935 -1.492117,-1.61935 -1.492117,-4.76552 0,-1.98949 0.763408,-3.49317 0.774976,-1.51525 2.139858,-2.32493 1.364882,-0.82124 3.134602,-0.82124 z m -0.115668,1.89695 q -1.758153,0 -2.602529,1.15668 -0.83281,1.14512 -0.83281,3.45848 0,4.61515 3.319671,4.62671 1.73502,0 2.521562,-1.17981 0.786542,-1.19138 0.786542,-3.56257 0,-4.49949 -3.192436,-4.49949 z m 11.694032,0.0231 q 0.740275,-0.63618 1.931655,-1.27235 1.202947,-0.64774 2.475295,-0.64774 1.896954,0 2.845432,1.13354 0.948477,1.12198 0.948477,3.13461 v 6.62777 l 1.76972,0.58991 v 1.30705 h -5.679297 v -1.30705 l 1.538384,-0.58991 v -6.39644 q 0,-1.28391 -0.497373,-1.88539 -0.497372,-0.60147 -1.630918,-0.60147 -0.90221,0 -1.665619,0.42797 -0.751842,0.42797 -1.260781,0.92535 -0.508939,0.49737 -0.508939,0.54364 v 6.98634 l 1.538384,0.58991 v 1.30705 h -5.9222 v -1.30705 l 2.012623,-0.58991 v -8.76763 l -2.012623,-0.47424 v -1.29548 l 3.909577,-0.11567 z m 24.648848,10.75712 -4.02525,0.11567 -0.18507,-1.35332 q -1.58465,1.58465 -3.72451,1.58465 -2.486858,0 -3.736072,-1.64248 -1.237647,-1.64249 -1.237647,-4.51105 0,-3.14617 1.584651,-5.00843 1.596218,-1.86225 4.696118,-1.86225 1.15668,0 2.24396,0.3817 v -3.93271 l -2.01262,-0.47424 v -1.30704 l 4.38381,-0.11567 v 16.34388 l 2.01263,0.47424 z m -4.38382,-10.30602 q -0.0694,-0.0463 -0.35857,-0.15037 -0.2776,-0.11566 -0.83281,-0.21977 -0.55521,-0.1041 -1.29548,-0.1041 -3.551008,0 -3.551008,4.74239 0,2.08202 0.717138,3.29654 0.72871,1.20294 2.24396,1.20294 0.90221,0 1.58465,-0.39327 0.69401,-0.39327 1.08728,-0.85594 0.40484,-0.46267 0.40484,-0.53207 z m 27.95695,3.66668 h -22.98323 v -1.89696 h 22.98323 z m 5.6793,4.62672 3.0999,-10.30602 2.24396,-0.35857 2.93796,10.66459 1.89696,-8.65197 -1.65405,-0.35857 v -1.29548 l 5.33229,-0.11567 v 1.41115 l -1.37645,0.2429 -2.8917,10.89593 h -2.72976 l -2.24396,-7.34492 -0.56678,-2.26709 -0.49737,2.26709 -2.25552,7.34492 h -2.7182 l -2.9611,-10.78026 -1.19138,-0.35857 v -1.29548 l 5.33229,-0.11567 v 1.41115 l -1.78128,0.2429 z m 19.02738,-8.7445 q 0.67088,-0.63618 1.85069,-1.27235 1.17981,-0.64774 2.44059,-0.64774 2.39433,0 3.29654,2.03575 0.58991,-0.5899 1.79285,-1.30704 1.21452,-0.72871 2.6141,-0.72871 1.89695,0 2.77603,1.12198 0.89064,1.11041 0.89064,3.14617 v 6.62777 l 1.78129,0.58991 v 1.30705 h -5.69086 v -1.30705 l 1.53838,-0.58991 v -6.39644 q 0,-1.30705 -0.4511,-1.89695 -0.45111,-0.58991 -1.56152,-0.58991 -0.90221,0 -1.64249,0.42797 -0.7287,0.42797 -1.20294,0.92535 -0.47424,0.49737 -0.47424,0.54364 v 6.98634 l 1.54995,0.58991 v 1.30705 h -5.45953 v -1.30705 l 1.54995,-0.58991 v -6.39644 q 0,-1.30705 -0.4511,-1.89695 -0.45111,-0.58991 -1.56152,-0.58991 -0.90221,0 -1.64249,0.42797 -0.7287,0.42797 -1.20294,0.92535 -0.47424,0.49737 -0.47424,0.54364 v 6.98634 l 1.53838,0.58991 v 1.30705 h -5.9222 v -1.30705 l 2.01262,-0.58991 v -8.76763 l -2.01262,-0.47424 v -1.29548 l 3.90958,-0.11567 z"
       id="text1"
       style="font-size:23.6888px;line-height:1.25;font-family:Kadwa;-inkscape-font-specification:'Kadwa, Normal';letter-spacing:0px;word-spacing:0px;fill:#7269d2;stroke-width:0.592224"
       inkscape:label="bond-wm-text"
       aria-label="bond—wm" />
  </g>
</svg>
