<?xml version="1.0" encoding="UTF-8" standalone="no"?>
<svg
   width="157.26172mm"
   height="56.155739mm"
   viewBox="0 0 157.26172 56.155739"
   version="1.1"
   id="svg5"
   xmlns="http://www.w3.org/2000/svg"
   xmlns:svg="http://www.w3.org/2000/svg">
  <defs
     id="defs2" />
  <g
     id="layer1"
     transform="translate(-25.656287,-100.0255)">
    <rect
       style="fill:#ffffff;stroke-width:0.244529"
       id="rect17098"
       width="155.1497"
       height="53.711983"
       x="26.560688"
       y="101.1554" />
    <path
       id="rect870"
       style="fill:#442178;stroke-width:0.264583"
       d="m 25.656287,100.0255 v 56.15574 H 182.918 V 100.0255 Z m 3.138309,10.1477 H 180.07012 v 42.91366 H 28.794596 Z" />
    <g
       aria-label="electron-wm"
       id="text2841"
       style="font-size:23.9889px;line-height:1.25;font-family:Roboto;-inkscape-font-specification:Roboto;letter-spacing:0px;word-spacing:0px;fill:#442178;stroke-width:0.264583">
      <path
         d="m 38.13295,139.24839 q -2.647212,0 -4.216798,-1.757 -1.557873,-1.76871 -1.557873,-4.57991 v -0.51539 q 0,-2.70578 1.604726,-4.49792 1.616439,-1.80385 3.818545,-1.80385 2.553506,0 3.865399,1.54616 1.323606,1.54616 1.323606,4.12309 v 1.44074 h -8.222757 l -0.03514,0.0586 q 0.03514,1.82728 0.925353,3.01033 0.890213,1.17133 2.494939,1.17133 1.171333,0 2.049833,-0.32798 0.890213,-0.33968 1.534446,-0.92535 l 0.901927,1.49931 q -0.679374,0.65594 -1.803853,1.11276 -1.112767,0.44511 -2.682353,0.44511 z m -0.3514,-11.3385 q -1.159619,0 -1.979552,0.98392 -0.819933,0.9722 -1.007347,2.44808 l 0.02343,0.0586 h 5.844951 v -0.30455 q 0,-1.35874 -0.726226,-2.27238 -0.726226,-0.91364 -2.155253,-0.91364 z"
         style="font-family:'Roboto Slab';-inkscape-font-specification:'Roboto Slab'"
         id="path17432" />
      <path
         d="m 44.926681,122.21721 v -1.48759 h 4.216799 v 16.46894 l 1.909273,0.32797 v 1.47588 h -6.126072 v -1.47588 l 1.909273,-0.32797 v -14.65338 z"
         style="font-family:'Roboto Slab';-inkscape-font-specification:'Roboto Slab'"
         id="path17434" />
      <path
         d="m 58.584424,139.24839 q -2.647213,0 -4.216799,-1.757 -1.557873,-1.76871 -1.557873,-4.57991 v -0.51539 q 0,-2.70578 1.604726,-4.49792 1.61644,-1.80385 3.818546,-1.80385 2.553505,0 3.865398,1.54616 1.323607,1.54616 1.323607,4.12309 v 1.44074 h -8.222758 l -0.03514,0.0586 q 0.03514,1.82728 0.925353,3.01033 0.890213,1.17133 2.49494,1.17133 1.171332,0 2.049832,-0.32798 0.890213,-0.33968 1.534446,-0.92535 l 0.901927,1.49931 q -0.679373,0.65594 -1.803853,1.11276 -1.112766,0.44511 -2.682352,0.44511 z m -0.3514,-11.3385 q -1.15962,0 -1.979553,0.98392 -0.819933,0.9722 -1.007346,2.44808 l 0.02343,0.0586 h 5.844952 v -0.30455 q 0,-1.35874 -0.726227,-2.27238 -0.726226,-0.91364 -2.155252,-0.91364 z"
         style="font-family:'Roboto Slab';-inkscape-font-specification:'Roboto Slab'"
         id="path17436" />
      <path
         d="m 71.387091,137.44454 q 1.147906,0 2.014692,-0.7028 0.8785,-0.71451 0.8785,-1.74529 h 2.073259 l 0.02343,0.0703 q 0.05857,1.63987 -1.464166,2.91662 -1.51102,1.26504 -3.525712,1.26504 -2.764346,0 -4.228512,-1.80385 -1.452453,-1.80385 -1.452453,-4.53306 v -0.49196 q 0,-2.70578 1.464166,-4.50963 1.464166,-1.81557 4.216799,-1.81557 1.522732,0 2.729205,0.50367 1.218187,0.50368 2.014693,1.38218 l 0.10542,2.8112 h -1.838993 l -0.503673,-1.99127 q -0.409966,-0.39825 -1.054199,-0.64423 -0.644234,-0.24598 -1.452453,-0.24598 -1.815566,0 -2.60036,1.31189 -0.773079,1.30018 -0.773079,3.19774 v 0.49196 q 0,1.94441 0.773079,3.24459 0.77308,1.28847 2.60036,1.28847 z"
         style="font-family:'Roboto Slab';-inkscape-font-specification:'Roboto Slab'"
         id="path17438" />
      <path
         d="m 82.655316,123.27141 v 3.05718 h 2.401233 v 1.71014 h -2.401233 v 7.69566 q 0,0.89021 0.363114,1.25333 0.374826,0.36311 0.983919,0.36311 0.304547,0 0.679373,-0.0469 0.38654,-0.0586 0.644234,-0.11714 l 0.316259,1.5813 q -0.327973,0.21084 -0.960493,0.33969 -0.632519,0.14056 -1.265039,0.14056 -1.4056,0 -2.237246,-0.84336 -0.831647,-0.85507 -0.831647,-2.67064 v -7.69566 h -2.002979 v -1.71014 h 2.002979 v -3.05718 z"
         style="font-family:'Roboto Slab';-inkscape-font-specification:'Roboto Slab'"
         id="path17440" />
      <path
         d="m 87.410927,127.81618 v -1.48759 h 3.970819 l 0.222553,1.83899 q 0.538813,-0.97221 1.323606,-1.52273 0.796507,-0.55053 1.815566,-0.55053 0.269407,0 0.550527,0.0469 0.292833,0.0351 0.445106,0.082 l -0.304546,2.14354 -1.311893,-0.0703 q -0.91364,0 -1.534446,0.43339 -0.620807,0.42168 -0.960493,1.19476 v 7.27398 l 1.909272,0.32797 v 1.47588 h -6.126071 v -1.47588 l 1.909273,-0.32797 v -9.05441 z"
         style="font-family:'Roboto Slab';-inkscape-font-specification:'Roboto Slab'"
         id="path17442" />
      <path
         d="m 97.10956,132.54837 q 0,-2.8112 1.522733,-4.62677 1.522737,-1.82728 4.134807,-1.82728 2.62378,0 4.14652,1.81557 1.53444,1.81556 1.53444,4.63848 v 0.25769 q 0,2.83463 -1.52273,4.63848 -1.52273,1.80385 -4.1348,1.80385 -2.6355,0 -4.158237,-1.80385 -1.522733,-1.81557 -1.522733,-4.63848 z m 2.307526,0.25769 q 0,2.01469 0.843364,3.32659 0.85507,1.31189 2.53008,1.31189 1.63986,0 2.49493,-1.31189 0.85508,-1.3119 0.85508,-3.32659 v -0.25769 q 0,-1.99127 -0.85508,-3.31488 -0.85507,-1.3236 -2.51836,-1.3236 -1.66329,0 -2.50665,1.3236 -0.843364,1.32361 -0.843364,3.31488 z"
         style="font-family:'Roboto Slab';-inkscape-font-specification:'Roboto Slab'"
         id="path17444" />
      <path
         d="m 110.21678,137.52653 1.90927,-0.32797 v -9.05441 l -1.90927,-0.32797 v -1.48759 h 3.97082 l 0.16398,1.88584 q 0.63252,-1.00734 1.5813,-1.55787 0.9605,-0.56224 2.17868,-0.56224 2.04984,0 3.17432,1.20647 1.12447,1.19476 1.12447,3.70142 v 6.19635 l 1.90928,0.32797 v 1.47588 h -6.12607 v -1.47588 l 1.90927,-0.32797 v -6.1495 q 0,-1.67501 -0.66766,-2.37781 -0.65595,-0.7028 -2.01469,-0.7028 -0.99564,0 -1.76872,0.48025 -0.76136,0.48025 -1.21818,1.31189 v 7.43797 l 1.90927,0.32797 v 1.47588 h -6.12607 z"
         style="font-family:'Roboto Slab';-inkscape-font-specification:'Roboto Slab'"
         id="path17446" />
      <path
         d="M 132.48382,132.70064 H 126.756 v -1.80385 h 5.72782 z"
         style="font-family:'Roboto Slab';-inkscape-font-specification:'Roboto Slab'"
         id="path17448" />
      <path
         d="m 139.82808,127.81618 -1.45245,0.25769 1.65158,6.31349 0.2694,1.53445 h 0.0703 l 0.32798,-1.53445 2.53008,-8.05877 h 1.8507 l 2.5418,8.05877 0.36311,1.71015 h 0.0703 l 0.33968,-1.71015 1.55788,-6.31349 -1.47588,-0.25769 v -1.48759 h 4.82589 v 1.48759 l -1.10105,0.16399 -3.19774,11.02224 h -1.86242 l -2.4598,-7.71908 -0.5271,-2.13183 -0.0703,0.0117 -0.49196,2.12012 -2.41295,7.71908 h -1.86242 l -3.19773,-11.02224 -1.11277,-0.16399 v -1.48759 h 4.82589 z"
         style="font-family:'Roboto Slab';-inkscape-font-specification:'Roboto Slab'"
         id="path17450" />
      <path
         d="m 154.70401,137.52653 1.90927,-0.32797 v -9.05441 l -1.90927,-0.32797 v -1.48759 h 3.98253 l 0.15227,1.65158 q 0.6091,-0.90193 1.56959,-1.39389 0.96049,-0.49196 2.22553,-0.49196 1.26504,0 2.16697,0.58567 0.91364,0.58566 1.37046,1.757 0.59738,-1.07763 1.5813,-1.71015 0.98392,-0.63252 2.29581,-0.63252 1.94441,0 3.06889,1.33532 1.12448,1.32361 1.12448,3.99425 v 5.77467 l 1.90927,0.32797 v 1.47588 h -6.13778 v -1.47588 l 1.90927,-0.32797 v -5.7981 q 0,-1.87413 -0.64423,-2.64721 -0.64423,-0.7848 -1.90927,-0.7848 -1.20648,0 -1.94442,0.85508 -0.72622,0.84336 -0.84336,2.13182 v 6.24321 l 1.90928,0.32797 v 1.47588 h -6.12607 v -1.47588 l 1.90927,-0.32797 v -5.7981 q 0,-1.78043 -0.66766,-2.60036 -0.65595,-0.83165 -1.90927,-0.83165 -1.0542,0 -1.73358,0.4334 -0.67937,0.43339 -1.04248,1.21818 v 7.57853 l 1.90927,0.32797 v 1.47588 h -6.12607 z"
         style="font-family:'Roboto Slab';-inkscape-font-specification:'Roboto Slab'"
         id="path17452" />
    </g>
    <path
       id="rect15036"
       style="fill:#ffffff;stroke-width:0.173593"
       d="m 175.65286,102.20004 -1.41553,1.41553 1.49215,1.4925 -1.49045,1.49046 1.41552,1.41552 1.49081,-1.4908 1.4891,1.48945 1.41553,-1.41554 -1.48944,-1.48909 1.49113,-1.49114 -1.41553,-1.41553 -1.49079,1.4908 z" />
    <circle
       style="fill:#442178;stroke-width:0.23224"
       id="path15689"
       cx="129.6857"
       cy="132.55521"
       r="3.4000001" />
    <path
       style="fill:#ffffff;stroke-width:0.642909"
       d="M 109.29459,497.61182 V 416.9267 h 285.45174 285.45174 v 80.68512 80.68512 H 394.74633 109.29459 Z m 43.07492,27.82131 c 2.52542,-0.75382 6.15226,-2.56927 7.93147,-3.97016 1.13445,-0.89322 1.11306,-1.04562 -0.54327,-3.87193 -0.94831,-1.61817 -1.86903,-2.94212 -2.04604,-2.94212 -0.17702,0 -1.18306,0.61324 -2.23566,1.36275 -3.92622,2.79571 -11.6738,4.00089 -15.76211,2.45188 -0.99541,-0.37716 -2.49908,-1.31741 -3.34148,-2.08946 -2.14906,-1.96959 -4.56227,-7.37914 -4.56973,-10.24372 l -0.006,-2.41091 h 15.51578 15.51578 l -0.34434,-6.26837 c -0.415,-7.55454 -1.67371,-11.37076 -4.99491,-15.14384 -3.45954,-3.93025 -7.92523,-5.77947 -14.11994,-5.847 -4.02681,-0.0439 -5.41983,0.24014 -8.4488,1.72266 -4.43893,2.17263 -8.47372,6.42728 -10.69376,11.2765 -2.24016,4.89314 -2.79805,15.2959 -1.12834,21.03949 1.98381,6.82408 6.60214,12.28606 12.23453,14.46947 4.50432,1.74612 12.0544,1.95207 17.0371,0.46476 z m 75.11279,0.48419 c 2.67678,-0.35664 7.43105,-2.43365 10.02421,-4.37929 1.20847,-0.90671 1.19659,-0.9979 -0.50928,-3.90874 -0.96064,-1.63921 -1.90577,-2.98037 -2.10029,-2.98037 -0.19453,0 -1.09005,0.57923 -1.99005,1.28717 -3.92533,3.08766 -12.06732,4.06097 -16.6315,1.98817 -3.94396,-1.79113 -7.32986,-7.49918 -7.32986,-12.35691 v -1.84789 h 15.50274 15.50275 l -0.27299,-6.58982 c -0.34041,-8.21767 -1.88203,-12.13749 -6.35527,-16.15932 -3.64568,-3.27777 -7.50425,-4.57498 -13.44777,-4.52099 -9.32794,0.0847 -17.03713,6.75109 -19.66512,17.00496 -1.40942,5.49925 -0.96557,14.29037 0.97925,19.39553 2.70459,7.09954 9.06217,12.30859 16.31049,13.3639 3.28343,0.47806 4.42439,0.44418 9.98269,-0.2964 z m 49.75321,-0.76261 c 3.54843,-1.11408 8.87741,-5.64074 10.38796,-8.82399 0.57355,-1.20867 1.04282,-3.09411 1.04282,-4.18988 v -1.99229 h -4.17891 c -3.5504,0 -4.17927,0.16922 -4.18132,1.12509 -0.005,2.27788 -2.5869,5.38412 -5.57376,6.70535 -3.65859,1.61837 -9.0222,1.37856 -11.64832,-0.52081 -0.95773,-0.69269 -2.6037,-2.97319 -3.6577,-5.06777 -1.78406,-3.5454 -1.9155,-4.29801 -1.90385,-10.90074 0.0111,-6.25425 0.20876,-7.51715 1.67313,-10.68659 2.38541,-5.16294 4.78612,-6.69236 10.5049,-6.69236 6.99853,0 9.06882,1.53407 10.62848,7.87564 l 0.672,2.73237 h 3.76153 3.76153 l -0.33146,-5.62546 c -0.20824,-3.53414 -0.67314,-6.01753 -1.25057,-6.6801 -1.6944,-1.94427 -8.20119,-4.93943 -12.35943,-5.6892 -6.48956,-1.17013 -13.47954,0.2359 -17.88755,3.59805 -10.99364,8.38526 -11.55536,32.16656 -0.97912,41.45262 5.36124,4.70723 13.31394,5.95635 21.51964,3.38007 z m 44.73875,0.30456 c 1.9601,-0.59739 2.09497,-0.80719 1.72001,-2.67547 -0.87599,-4.36463 -0.77975,-4.27673 -4.69384,-4.28727 -2.00937,-0.005 -3.99694,-0.22828 -4.41682,-0.49527 -1.74833,-1.11168 -2.12968,-4.4824 -2.12968,-18.82402 v -14.74506 h 4.50037 4.50036 v -3.536 -3.536 h -4.50036 -4.50037 v -5.78619 -5.78618 h -4.50036 -4.50037 v 5.78618 5.78619 h -3.85745 -3.85746 v 3.536 3.536 h 3.81911 3.81911 l 0.19907,17.19782 c 0.18331,15.83578 0.30091,17.37072 1.4849,19.38081 3.04892,5.17625 9.20949,6.79653 16.91378,4.44846 z m 71.7778,0.43022 c 3.85863,-0.63527 6.94089,-2.47866 10.19353,-6.09639 4.57564,-5.0892 5.83113,-9.03446 5.83113,-18.32382 0,-9.43631 -1.26497,-13.30865 -6.06212,-18.55749 -4.20849,-4.60476 -8.30395,-6.38908 -14.75446,-6.42827 -6.72687,-0.0409 -10.99408,1.52296 -14.94987,5.47875 -3.90742,3.90741 -6.09843,8.6087 -6.87473,14.75121 -1.97335,15.6141 5.20396,27.68233 17.55149,29.51178 3.30247,0.48931 4.27143,0.45342 9.06503,-0.33577 z m -200.36185,-3.36493 -0.19596,-3.05382 -3.69673,-0.55516 -3.69672,-0.55516 v -31.10813 -31.10812 h -8.0716 -8.07159 l 0.19595,3.05382 0.19596,3.05382 3.37527,0.5726 3.37528,0.5726 v 27.50842 27.50842 l -3.53601,0.4418 -3.536,0.44179 v 3.14046 3.14048 h 11.92905 11.92905 z m 160.20992,-0.0867 v -3.14046 l -3.536,-0.44179 -3.536,-0.4418 v -13.48676 c 0,-15.51296 0.21295,-16.33507 4.80741,-18.55921 2.15468,-1.04306 3.79226,-1.35332 6.2859,-1.19093 l 3.37215,0.21959 0.54429,-4.06322 c 0.29937,-2.23477 0.35711,-4.25041 0.12832,-4.4792 -0.80025,-0.80025 -7.15277,-0.3097 -9.1124,0.70367 -1.08754,0.56239 -2.86399,2.03236 -3.94767,3.2666 -2.13299,2.42934 -2.72091,2.0862 -2.72091,-1.58807 v -1.87614 h -8.03637 -8.03637 v 2.84976 c 0,3.10628 0.0464,3.14267 4.98255,3.91033 l 2.73237,0.42493 v 16.90761 16.90761 l -3.69673,0.55516 -3.69673,0.55516 -0.19595,3.05382 -0.19596,3.05382 h 11.92905 11.92905 z m 86.14985,0 v -3.14046 l -3.536,-0.44179 -3.536,-0.4418 v -14.17338 -14.17338 l 2.43421,-2.43422 c 3.86664,-3.86663 10.65472,-4.87806 14.75023,-2.19778 3.22837,2.11278 3.63576,4.09169 3.91245,19.00472 l 0.25788,13.9 -3.76611,0.56546 -3.76611,0.56547 -0.19595,3.05382 -0.19596,3.05382 h 11.92905 11.92905 v -3.14048 -3.14046 l -3.48543,-0.43547 -3.48543,-0.43549 -0.2113,-15.22915 c -0.19319,-13.92371 -0.32813,-15.47715 -1.57427,-18.12224 -2.75526,-5.84843 -7.46918,-8.58872 -14.75181,-8.57551 -3.77642,0.007 -5.11444,0.31958 -7.93459,1.8545 -1.86569,1.01544 -3.91357,2.50911 -4.55084,3.31926 -1.63995,2.08486 -1.93798,1.86343 -1.93798,-1.43986 v -2.91288 l -7.87564,0.18051 -7.87564,0.18052 -0.20459,2.13145 c -0.27638,2.87928 0.6127,3.73674 4.39472,4.23845 l 3.20333,0.42494 v 16.94197 16.94198 l -3.69673,0.55516 c -3.59272,0.53953 -3.70253,0.61567 -3.90276,2.70582 -0.38673,4.03701 -0.63105,3.95698 12.07968,3.95698 h 11.59254 z m 98.82507,-12.28935 c 2.57056,-8.3096 5.00727,-16.41026 5.41492,-18.00146 l 0.74118,-2.89309 0.82839,3.21454 c 0.45562,1.76801 2.94501,9.94639 5.53198,18.1742 l 4.70359,14.95964 3.83678,-0.17273 3.83677,-0.17273 5.6159,-19.28728 c 3.08874,-10.608 5.77967,-19.93822 5.97984,-20.73383 0.21753,-0.86457 0.85516,-1.44654 1.58493,-1.44654 2.62395,0 3.25488,-0.69876 3.25488,-3.60479 v -2.8243 h -9.64364 -9.64364 v 2.84976 c 0,2.9906 -0.045,2.94771 4.05471,3.86245 1.32537,0.29571 1.71479,0.69568 1.46659,1.50629 -0.55573,1.81491 -6.00993,24.11773 -6.32306,25.85569 -0.28398,1.57614 -0.29868,1.56992 -0.75894,-0.32145 -0.25814,-1.06081 -2.695,-9.01681 -5.41525,-17.68001 l -4.94589,-15.75128 -3.84345,-0.18247 -3.84344,-0.18248 -4.46941,14.32648 c -2.45818,7.87957 -4.81508,15.62837 -5.23756,17.21957 -0.42431,1.59809 -0.90932,2.46143 -1.08353,1.92873 -0.99096,-3.03015 -6.72542,-26.07674 -6.53727,-26.27308 0.12398,-0.12939 1.18036,-0.42918 2.3475,-0.6662 2.00118,-0.40639 2.13325,-0.60362 2.31803,-3.46148 l 0.19596,-3.03052 h -9.35741 -9.35741 v 2.8243 c 0,2.88456 0.6353,3.60479 3.17972,3.60479 1.24266,0 1.22833,-0.0433 9.11407,27.50306 l 4.10039,14.32341 3.84002,-0.17941 3.84002,-0.17941 z m 69.49167,12.37907 -0.19595,-3.05076 -3.37527,-0.53429 -3.37528,-0.53427 v -14.68842 -14.68842 l 1.96249,-1.9625 c 3.37546,-3.37546 9.47758,-4.1351 13.26776,-1.65168 0.87622,0.57413 2.14116,2.25087 2.81096,3.72611 1.06764,2.35146 1.21957,4.32137 1.23195,15.97358 l 0.0141,13.29133 -3.37528,0.53427 -3.37527,0.53429 -0.19595,3.05076 -0.19596,3.05076 h 11.96428 11.96427 l -0.19595,-3.05076 -0.19596,-3.05076 -3.37527,-0.53429 -3.37527,-0.53427 v -12.92762 c 0,-11.79095 0.11791,-13.17119 1.341,-15.69776 1.6617,-3.43263 4.13847,-5.25436 7.76571,-5.71189 3.29439,-0.41554 6.48436,0.99914 8.5276,3.78181 1.23636,1.6838 1.34612,2.83982 1.53589,16.17747 l 0.20438,14.36409 -3.41893,0.54123 -3.41892,0.54123 -0.19595,3.05076 -0.19596,3.05076 h 11.96428 11.96427 l -0.19595,-3.05076 -0.19596,-3.05076 -3.37527,-0.53429 -3.37527,-0.53427 V 506.3601 c 0,-16.21322 -0.93908,-20.9239 -5.05595,-25.36211 -2.73574,-2.94928 -6.35659,-4.4879 -10.69533,-4.54479 -5.27231,-0.0691 -9.23293,1.5761 -12.60757,5.23716 -1.89109,2.05158 -2.83347,2.6905 -3.03207,2.05565 -0.15848,-0.50663 -1.52464,-2.12123 -3.0359,-3.58799 -5.53609,-5.37309 -15.38323,-5.15546 -21.80381,0.48189 l -2.27415,1.9967 v -1.62129 c 0,-3.57971 -0.17472,-3.65518 -8.46183,-3.65518 h -7.68135 l 0.19595,3.05076 0.19595,3.05075 3.37528,0.53429 3.37527,0.53427 v 16.93903 16.93902 l -3.37527,0.53427 -3.37528,0.53429 -0.19595,3.05076 -0.19595,3.05076 h 11.96427 11.96427 z m -110.63636,-10.646 c 6.89649,-4.77927 7.72318,-14.15533 1.77273,-20.10578 -8.76926,-8.76926 -23.40214,-1.49547 -21.93373,10.90294 0.49581,4.1863 3.02797,7.84367 6.84136,9.88145 3.99983,2.13741 9.67322,1.84836 13.31964,-0.67861 z"
       id="path16443"
       transform="scale(0.26458333)" />
    <path
       style="fill:#ffffff;stroke-width:0.642909"
       d="m 132.14524,494.558 c 1.06222,-4.92125 4.82369,-9.62458 8.41883,-10.52691 2.40865,-0.60453 6.67031,0.15611 8.49112,1.51554 2.03411,1.51869 3.70207,4.82828 4.21751,8.36846 l 0.39782,2.73237 h -10.98813 -10.98814 z"
       id="path16482"
       transform="scale(0.26458333)" />
    <path
       style="fill:#ffffff;stroke-width:0.642909"
       d="m 209.29436,494.558 c 0.71535,-3.31421 2.60119,-6.54581 5.10039,-8.74015 1.94184,-1.70495 2.82983,-2.02858 5.56618,-2.02858 6.28047,0 9.88503,3.25303 10.63666,9.59931 l 0.38596,3.25888 h -11.07009 -11.07009 z"
       id="path16758"
       transform="scale(0.26458333)" />
    <path
       style="fill:#ffffff;stroke-width:0.642909"
       d="m 383.46354,518.24497 c -4.73205,-2.06115 -7.36158,-8.05337 -7.36158,-16.77569 0,-8.81136 2.80205,-15.00213 7.71046,-17.03526 2.72386,-1.12826 8.9784,-0.56702 11.04392,0.99101 4.05825,3.06114 5.95778,8.17534 5.9592,16.04425 0.002,8.71123 -1.93963,13.39389 -6.7743,16.3413 -2.54834,1.55357 -7.53783,1.75847 -10.5777,0.43439 z"
       id="path16797"
       transform="scale(0.26458333)" />
  </g>
</svg>
